<svg xmlns="http://www.w3.org/2000/svg" xmlns:xlink="http://www.w3.org/1999/xlink" width="203" height="261" viewBox="0 0 203 261">
  <defs>
    <clipPath id="clip-edit_icon">
      <rect width="203" height="261"/>
    </clipPath>
  </defs>
  <g id="edit_icon" clip-path="url(#clip-edit_icon)">
    <g id="Group_4" data-name="Group 4" transform="translate(-4.446 -5.496)">
      <g id="Group_3" data-name="Group 3" transform="translate(55.657 -20.504) rotate(16)">
        <g id="Rectangle_3" data-name="Rectangle 3" transform="matrix(0.899, 0.438, -0.438, 0.899, 124.692, 0)" fill="none" stroke="#518cf2" stroke-width="14">
          <path d="M28.378,0h0A28.378,28.378,0,0,1,56.756,28.378V223.813a0,0,0,0,1,0,0H0a0,0,0,0,1,0,0V28.378A28.378,28.378,0,0,1,28.378,0Z" stroke="none"/>
          <path d="M28.378,7h0A21.378,21.378,0,0,1,49.756,28.378V210.307a6.506,6.506,0,0,1-6.506,6.506H13.506A6.506,6.506,0,0,1,7,210.307V28.378A21.378,21.378,0,0,1,28.378,7Z" fill="none"/>
        </g>
        <g id="Polygon_1" data-name="Polygon 1" transform="matrix(-0.899, -0.438, 0.438, -0.899, 51.528, 280.118)" fill="#518cf2">
          <path d="M 46.28717803955078 53.75732421875 L 11.04249000549316 53.75732421875 L 28.66483497619629 16.40540313720703 L 46.28717803955078 53.75732421875 Z" stroke="none"/>
          <path d="M 28.66483497619629 32.81083679199219 L 22.08499526977539 46.75731658935547 L 35.24467468261719 46.75731658935547 L 28.66483497619629 32.81083679199219 M 28.66483497619629 -1.1444091796875e-05 L 57.32966232299805 60.7573127746582 L 7.62939453125e-06 60.7573127746582 L 28.66483497619629 -1.1444091796875e-05 Z" stroke="none" fill="#518cf2"/>
        </g>
      </g>
      <line id="Line_4" data-name="Line 4" x2="33.941" y2="31.317" transform="translate(147.777 53.129)" fill="none" stroke="#518cf2" stroke-width="14"/>
    </g>
  </g>
</svg>
